<?xml version="1.0" encoding="UTF-8" standalone="no"?>
<!DOCTYPE svg PUBLIC "-//W3C//DTD SVG 1.1//EN"
 "http://www.w3.org/Graphics/SVG/1.1/DTD/svg11.dtd">
<!-- Generated by graphviz version 2.38.0 (20140413.2041)
 -->
<!-- Title: roadmap Pages: 1 -->
<svg width="764pt" height="1879pt"
 viewBox="0.00 0.00 764.00 1879.00" xmlns="http://www.w3.org/2000/svg" xmlns:xlink="http://www.w3.org/1999/xlink">
<g id="graph0" class="graph" transform="scale(1 1) rotate(0) translate(4 1875)">
<title>roadmap</title>
<polygon fill="white" stroke="none" points="-4,4 -4,-1875 760,-1875 760,4 -4,4"/>
<g id="clust3" class="cluster"><title>cluster_nc_notification</title>
<polygon fill="none" stroke="black" points="350,-1291 350,-1474 706,-1474 706,-1291 350,-1291"/>
<text text-anchor="middle" x="528" y="-1458.8" font-family="Times New Roman,serif" font-size="14.00">Notification</text>
</g>
<g id="clust7" class="cluster"><title>cluster_yang_convertion</title>
<polygon fill="none" stroke="black" points="395,-824 395,-930 500,-930 500,-824 395,-824"/>
</g>
<g id="clust2" class="cluster"><title>cluster_nc_transport</title>
<polygon fill="none" stroke="black" points="356,-1482 356,-1719 748,-1719 748,-1482 356,-1482"/>
<text text-anchor="middle" x="552" y="-1703.8" font-family="Times New Roman,serif" font-size="14.00">NETCONF Transport</text>
</g>
<g id="clust4" class="cluster"><title>cluster_yang_spec</title>
<polygon fill="none" stroke="black" points="225,-656 225,-816 503,-816 503,-656 225,-656"/>
</g>
<g id="clust6" class="cluster"><title>cluster_app_yang</title>
<polygon fill="none" stroke="black" points="365,-8 365,-546 530,-546 530,-8 365,-8"/>
</g>
<g id="clust5" class="cluster"><title>cluster_nc_yang</title>
<polygon fill="none" stroke="black" points="353,-986 353,-1146 542,-1146 542,-986 353,-986"/>
</g>
<g id="clust1" class="cluster"><title>cluster_nc_ext</title>
<polygon fill="none" stroke="black" points="392,-1154 392,-1283 503,-1283 503,-1154 392,-1154"/>
<text text-anchor="middle" x="447.5" y="-1267.8" font-family="Times New Roman,serif" font-size="14.00">Capability Ext</text>
</g>
<!-- rfc3535 -->
<g id="node1" class="node"><title>rfc3535</title>
<g id="a_node1"><a xlink:href="https://tools.ietf.org/html/rfc3535" xlink:title="Requirements\nRFC 3535">
<polygon fill="none" stroke="#ffdb7d" stroke-width="2" points="131,-1092 42,-1092 42,-1056 131,-1056 131,-1092"/>
<text text-anchor="middle" x="86.5" y="-1077.2" font-family="SimSun" font-size="11.00">Requirements</text>
<text text-anchor="middle" x="86.5" y="-1065.2" font-family="SimSun" font-size="11.00">RFC 3535</text>
</a>
</g>
</g>
<!-- rfc4741 -->
<g id="node3" class="node"><title>rfc4741</title>
<g id="a_node3"><a xlink:href="https://tools.ietf.org/html/rfc4741" xlink:title="NETCONF base 1.0\nRFC 4741">
<polygon fill="none" stroke="#6dfedf" stroke-width="2" points="322,-1484 209,-1484 209,-1448 322,-1448 322,-1484"/>
<text text-anchor="middle" x="265.5" y="-1469.2" font-family="SimSun" font-size="11.00">NETCONF base 1.0</text>
<text text-anchor="middle" x="265.5" y="-1457.2" font-family="SimSun" font-size="11.00">RFC 4741</text>
</a>
</g>
</g>
<!-- rfc3535&#45;&gt;rfc4741 -->
<g id="edge1" class="edge"><title>rfc3535&#45;&gt;rfc4741</title>
<path fill="none" stroke="#61bd4d" stroke-width="2" d="M131.28,-1079.01C146.332,-1082.81 162.116,-1089.44 173,-1101 219.62,-1150.52 250.932,-1360.93 260.998,-1437.76"/>
<polygon fill="#61bd4d" stroke="#61bd4d" stroke-width="2" points="257.528,-1438.22 262.277,-1447.69 264.47,-1437.32 257.528,-1438.22"/>
</g>
<!-- rfc6020 -->
<g id="node18" class="node"><title>rfc6020</title>
<g id="a_node18"><a xlink:href="https://tools.ietf.org/html/rfc6020" xlink:title="YANG 1.0\nRFC 6020">
<polygon fill="none" stroke="#ae81ff" stroke-width="2" points="298,-700 233,-700 233,-664 298,-664 298,-700"/>
<text text-anchor="middle" x="265.5" y="-685.2" font-family="SimSun" font-size="11.00">YANG 1.0</text>
<text text-anchor="middle" x="265.5" y="-673.2" font-family="SimSun" font-size="11.00">RFC 6020</text>
</a>
</g>
</g>
<!-- rfc3535&#45;&gt;rfc6020 -->
<g id="edge2" class="edge"><title>rfc3535&#45;&gt;rfc6020</title>
<path fill="none" stroke="#61bd4d" stroke-width="2" d="M95.6821,-1055.88C123.987,-993.193 217.874,-785.263 251.98,-709.729"/>
<polygon fill="#61bd4d" stroke="#61bd4d" stroke-width="2" points="255.275,-710.935 256.201,-700.381 248.895,-708.054 255.275,-710.935"/>
</g>
<!-- rfc7758 -->
<g id="node2" class="node"><title>rfc7758</title>
<g id="a_node2"><a xlink:href="https://tools.ietf.org/html/rfc7758" xlink:title="Time Capability in NETCONF\nRFC 7758">
<polygon fill="none" stroke="#67bbdc" stroke-width="2" points="173,-1146 0,-1146 0,-1110 173,-1110 173,-1146"/>
<text text-anchor="middle" x="86.5" y="-1131.2" font-family="SimSun" font-size="11.00">Time Capability in NETCONF</text>
<text text-anchor="middle" x="86.5" y="-1119.2" font-family="SimSun" font-size="11.00">RFC 7758</text>
</a>
</g>
</g>
<!-- rfc4742 -->
<g id="node4" class="node"><title>rfc4742</title>
<g id="a_node4"><a xlink:href="https://tools.ietf.org/html/rfc4742" xlink:title="NETCONF base 1.0 over SSH\nRFC 4742">
<polygon fill="none" stroke="#6dfedf" stroke-width="2" points="531,-1580 364,-1580 364,-1544 531,-1544 531,-1580"/>
<text text-anchor="middle" x="447.5" y="-1565.2" font-family="SimSun" font-size="11.00">NETCONF base 1.0 over SSH</text>
<text text-anchor="middle" x="447.5" y="-1553.2" font-family="SimSun" font-size="11.00">RFC 4742</text>
</a>
</g>
</g>
<!-- rfc4741&#45;&gt;rfc4742 -->
<g id="edge3" class="edge"><title>rfc4741&#45;&gt;rfc4742</title>
<path fill="none" stroke="#61bd4d" stroke-width="2" d="M283.791,-1484.05C299.656,-1499.63 324.502,-1521.67 350,-1535 353.499,-1536.83 357.136,-1538.55 360.859,-1540.16"/>
<polygon fill="#61bd4d" stroke="#61bd4d" stroke-width="2" points="359.678,-1543.45 370.261,-1543.94 362.293,-1536.96 359.678,-1543.45"/>
</g>
<!-- rfc4743 -->
<g id="node5" class="node"><title>rfc4743</title>
<g id="a_node5"><a xlink:href="https://tools.ietf.org/html/rfc4743" xlink:title="NETCONF over SOAP\nRFC 4743">
<polygon fill="none" stroke="#6dfedf" stroke-width="2" points="507,-1526 388,-1526 388,-1490 507,-1490 507,-1526"/>
<text text-anchor="middle" x="447.5" y="-1511.2" font-family="SimSun" font-size="11.00">NETCONF over SOAP</text>
<text text-anchor="middle" x="447.5" y="-1499.2" font-family="SimSun" font-size="11.00">RFC 4743</text>
</a>
</g>
</g>
<!-- rfc4741&#45;&gt;rfc4743 -->
<g id="edge4" class="edge"><title>rfc4741&#45;&gt;rfc4743</title>
<path fill="none" stroke="#61bd4d" stroke-width="2" d="M322.466,-1479.06C340.05,-1483.16 359.666,-1487.74 378.015,-1492.02"/>
<polygon fill="#61bd4d" stroke="#61bd4d" stroke-width="2" points="377.232,-1495.43 387.766,-1494.3 378.823,-1488.61 377.232,-1495.43"/>
</g>
<!-- rfc4744 -->
<g id="node6" class="node"><title>rfc4744</title>
<g id="a_node6"><a xlink:href="https://tools.ietf.org/html/rfc4744" xlink:title="NETCONF over BEEP\nRFC 4744">
<polygon fill="none" stroke="#6dfedf" stroke-width="2" points="507,-1688 388,-1688 388,-1652 507,-1652 507,-1688"/>
<text text-anchor="middle" x="447.5" y="-1673.2" font-family="SimSun" font-size="11.00">NETCONF over BEEP</text>
<text text-anchor="middle" x="447.5" y="-1661.2" font-family="SimSun" font-size="11.00">RFC 4744</text>
</a>
</g>
</g>
<!-- rfc4741&#45;&gt;rfc4744 -->
<g id="edge5" class="edge"><title>rfc4741&#45;&gt;rfc4744</title>
<path fill="none" stroke="#61bd4d" stroke-width="2" d="M269.842,-1484.08C277.431,-1519.93 299.386,-1600.25 350,-1643 358.242,-1649.96 368.154,-1655.14 378.443,-1658.98"/>
<polygon fill="#61bd4d" stroke="#61bd4d" stroke-width="2" points="377.367,-1662.31 387.961,-1662.15 379.578,-1655.67 377.367,-1662.31"/>
</g>
<!-- rfc5277 -->
<g id="node7" class="node"><title>rfc5277</title>
<g id="a_node7"><a xlink:href="https://tools.ietf.org/html/rfc5277" xlink:title="NETCONF Notification\nRFC 5277">
<polygon fill="none" stroke="#6dfedf" stroke-width="2" points="516,-1443 379,-1443 379,-1407 516,-1407 516,-1443"/>
<text text-anchor="middle" x="447.5" y="-1428.2" font-family="SimSun" font-size="11.00">NETCONF Notification</text>
<text text-anchor="middle" x="447.5" y="-1416.2" font-family="SimSun" font-size="11.00">RFC 5277</text>
</a>
</g>
</g>
<!-- rfc4741&#45;&gt;rfc5277 -->
<g id="edge7" class="edge"><title>rfc4741&#45;&gt;rfc5277</title>
<path fill="none" stroke="#61bd4d" stroke-width="2" d="M322.466,-1453.25C337.112,-1449.92 353.168,-1446.26 368.727,-1442.71"/>
<polygon fill="#61bd4d" stroke="#61bd4d" stroke-width="2" points="369.887,-1446.04 378.86,-1440.41 368.333,-1439.22 369.887,-1446.04"/>
</g>
<!-- rfc5539 -->
<g id="node8" class="node"><title>rfc5539</title>
<g id="a_node8"><a xlink:href="https://tools.ietf.org/html/rfc5539" xlink:title="NETCONF over TLS\nRFC 5539">
<polygon fill="none" stroke="#6dfedf" stroke-width="2" points="504,-1634 391,-1634 391,-1598 504,-1598 504,-1634"/>
<text text-anchor="middle" x="447.5" y="-1619.2" font-family="SimSun" font-size="11.00">NETCONF over TLS</text>
<text text-anchor="middle" x="447.5" y="-1607.2" font-family="SimSun" font-size="11.00">RFC 5539</text>
</a>
</g>
</g>
<!-- rfc4741&#45;&gt;rfc5539 -->
<g id="edge9" class="edge"><title>rfc4741&#45;&gt;rfc5539</title>
<path fill="none" stroke="#61bd4d" stroke-width="2" d="M273.839,-1484.01C285.751,-1510.97 311.868,-1561.57 350,-1589 359.284,-1595.68 370.164,-1600.71 381.208,-1604.49"/>
<polygon fill="#61bd4d" stroke="#61bd4d" stroke-width="2" points="380.331,-1607.89 390.919,-1607.51 382.408,-1601.2 380.331,-1607.89"/>
</g>
<!-- rfc5717 -->
<g id="node9" class="node"><title>rfc5717</title>
<g id="a_node9"><a xlink:href="https://tools.ietf.org/html/rfc5717" xlink:title="Partial Lock\nRFC 5717">
<polygon fill="none" stroke="#6dfedf" stroke-width="2" points="492,-1252 403,-1252 403,-1216 492,-1216 492,-1252"/>
<text text-anchor="middle" x="447.5" y="-1237.2" font-family="SimSun" font-size="11.00">Partial Lock</text>
<text text-anchor="middle" x="447.5" y="-1225.2" font-family="SimSun" font-size="11.00">RFC 5717</text>
</a>
</g>
</g>
<!-- rfc4741&#45;&gt;rfc5717 -->
<g id="edge10" class="edge"><title>rfc4741&#45;&gt;rfc5717</title>
<path fill="none" stroke="#61bd4d" stroke-width="2" d="M270.891,-1447.86C280.15,-1412.92 304.649,-1335.44 350,-1287 362.122,-1274.05 378.134,-1263.53 393.624,-1255.37"/>
<polygon fill="#61bd4d" stroke="#61bd4d" stroke-width="2" points="395.283,-1258.46 402.651,-1250.84 392.143,-1252.2 395.283,-1258.46"/>
</g>
<!-- rfc6241 -->
<g id="node11" class="node"><title>rfc6241</title>
<g id="a_node11"><a xlink:href="https://tools.ietf.org/html/rfc6241" xlink:title="NETCONF base 1.1\nRFC 6241">
<polygon fill="none" stroke="#6dfedf" stroke-width="2" points="504,-1871 391,-1871 391,-1835 504,-1835 504,-1871"/>
<text text-anchor="middle" x="447.5" y="-1856.2" font-family="SimSun" font-size="11.00">NETCONF base 1.1</text>
<text text-anchor="middle" x="447.5" y="-1844.2" font-family="SimSun" font-size="11.00">RFC 6241</text>
</a>
</g>
</g>
<!-- rfc4741&#45;&gt;rfc6241 -->
<g id="edge6" class="edge"><title>rfc4741&#45;&gt;rfc6241</title>
<path fill="none" stroke="#61bd4d" stroke-width="2" d="M268.279,-1484.1C275.102,-1549.94 301.672,-1775.45 350,-1826 358.406,-1834.79 369.419,-1840.8 380.988,-1844.88"/>
<polygon fill="#61bd4d" stroke="#61bd4d" stroke-width="2" points="380.206,-1848.3 390.792,-1847.87 382.252,-1841.6 380.206,-1848.3"/>
</g>
<!-- rfc6243 -->
<g id="node13" class="node"><title>rfc6243</title>
<g id="a_node13"><a xlink:href="https://tools.ietf.org/html/rfc6243" xlink:title="With&#45;defaults\nRFC 6243">
<polygon fill="none" stroke="#6dfedf" stroke-width="2" points="495,-1198 400,-1198 400,-1162 495,-1162 495,-1198"/>
<text text-anchor="middle" x="447.5" y="-1183.2" font-family="SimSun" font-size="11.00">With&#45;defaults</text>
<text text-anchor="middle" x="447.5" y="-1171.2" font-family="SimSun" font-size="11.00">RFC 6243</text>
</a>
</g>
</g>
<!-- rfc4741&#45;&gt;rfc6243 -->
<g id="edge11" class="edge"><title>rfc4741&#45;&gt;rfc6243</title>
<path fill="none" stroke="#61bd4d" stroke-width="2" d="M266.784,-1447.94C268.53,-1401.06 279.851,-1274.46 350,-1207 360.799,-1196.61 375.255,-1190.16 389.683,-1186.17"/>
<polygon fill="#61bd4d" stroke="#61bd4d" stroke-width="2" points="390.717,-1189.52 399.623,-1183.78 389.082,-1182.71 390.717,-1189.52"/>
</g>
<!-- rfc6470 -->
<g id="node14" class="node"><title>rfc6470</title>
<g id="a_node14"><a xlink:href="https://tools.ietf.org/html/rfc6470" xlink:title="NETCONF Base Notifications\nRFC 6470">
<polygon fill="none" stroke="#6dfedf" stroke-width="2" points="534,-1084 361,-1084 361,-1048 534,-1048 534,-1084"/>
<text text-anchor="middle" x="447.5" y="-1069.2" font-family="SimSun" font-size="11.00">NETCONF Base Notifications</text>
<text text-anchor="middle" x="447.5" y="-1057.2" font-family="SimSun" font-size="11.00">RFC 6470</text>
</a>
</g>
</g>
<!-- rfc4741&#45;&gt;rfc6470 -->
<g id="edge12" class="edge"><title>rfc4741&#45;&gt;rfc6470</title>
<path fill="none" stroke="#61bd4d" stroke-width="2" d="M268.138,-1447.72C274.553,-1380.13 300.102,-1145.59 350,-1093 350.909,-1092.04 351.849,-1091.12 352.818,-1090.22"/>
<polygon fill="#61bd4d" stroke="#61bd4d" stroke-width="2" points="355.057,-1092.91 360.755,-1083.98 350.73,-1087.41 355.057,-1092.91"/>
</g>
<!-- rfc6536 -->
<g id="node15" class="node"><title>rfc6536</title>
<g id="a_node15"><a xlink:href="https://tools.ietf.org/html/rfc6536" xlink:title="NETCONF ACM\nRFC 6536">
<polygon fill="none" stroke="#6dfedf" stroke-width="2" points="489,-1817 406,-1817 406,-1781 489,-1781 489,-1817"/>
<text text-anchor="middle" x="447.5" y="-1802.2" font-family="SimSun" font-size="11.00">NETCONF ACM</text>
<text text-anchor="middle" x="447.5" y="-1790.2" font-family="SimSun" font-size="11.00">RFC 6536</text>
</a>
</g>
</g>
<!-- rfc4741&#45;&gt;rfc6536 -->
<g id="edge13" class="edge"><title>rfc4741&#45;&gt;rfc6536</title>
<path fill="none" stroke="#61bd4d" stroke-width="2" d="M265.724,-1484.14C264.52,-1536.61 268.492,-1689.97 350,-1772 362.084,-1784.16 379.164,-1790.96 395.604,-1794.72"/>
<polygon fill="#61bd4d" stroke="#61bd4d" stroke-width="2" points="395.221,-1798.22 405.706,-1796.7 396.562,-1791.35 395.221,-1798.22"/>
</g>
<!-- rfc7895 -->
<g id="node17" class="node"><title>rfc7895</title>
<g id="a_node17"><a xlink:href="https://tools.ietf.org/html/rfc7895" xlink:title="YANG Module Library\nRFC 7895">
<polygon fill="none" stroke="#6dfedf" stroke-width="2" points="513,-1138 382,-1138 382,-1102 513,-1102 513,-1138"/>
<text text-anchor="middle" x="447.5" y="-1123.2" font-family="SimSun" font-size="11.00">YANG Module Library</text>
<text text-anchor="middle" x="447.5" y="-1111.2" font-family="SimSun" font-size="11.00">RFC 7895</text>
</a>
</g>
</g>
<!-- rfc4741&#45;&gt;rfc7895 -->
<g id="edge15" class="edge"><title>rfc4741&#45;&gt;rfc7895</title>
<path fill="none" stroke="#61bd4d" stroke-width="2" d="M268.992,-1447.67C277.589,-1387 307.805,-1194.05 350,-1150 356.328,-1143.39 364.081,-1138.23 372.416,-1134.21"/>
<polygon fill="#61bd4d" stroke="#61bd4d" stroke-width="2" points="373.827,-1137.41 381.65,-1130.26 371.079,-1130.97 373.827,-1137.41"/>
</g>
<!-- rfc6244 -->
<g id="node22" class="node"><title>rfc6244</title>
<g id="a_node22"><a xlink:href="https://tools.ietf.org/html/rfc6244" xlink:title="Architecture\nRFC 6244">
<polygon fill="none" stroke="#ae81ff" stroke-width="2" points="492,-976 403,-976 403,-940 492,-940 492,-976"/>
<text text-anchor="middle" x="447.5" y="-961.2" font-family="SimSun" font-size="11.00">Architecture</text>
<text text-anchor="middle" x="447.5" y="-949.2" font-family="SimSun" font-size="11.00">RFC 6244</text>
</a>
</g>
</g>
<!-- rfc4741&#45;&gt;rfc6244 -->
<g id="edge33" class="edge"><title>rfc4741&#45;&gt;rfc6244</title>
<path fill="none" stroke="#61bd4d" stroke-width="2" d="M267.059,-1447.95C269.882,-1368.63 285.122,-1051.79 350,-982 360.992,-970.176 376.83,-963.787 392.508,-960.442"/>
<polygon fill="#61bd4d" stroke="#61bd4d" stroke-width="2" points="393.485,-963.824 402.734,-958.656 392.281,-956.928 393.485,-963.824"/>
</g>
<!-- draft_ietf_netconf_restconf -->
<g id="node38" class="node"><title>draft_ietf_netconf_restconf</title>
<g id="a_node38"><a xlink:href="https://tools.ietf.org/html/draft-ietf-netconf-restconf-18" xlink:title="RESTCONF">
<polygon fill="none" stroke="#2de0a7" stroke-width="2" points="480,-1763 415,-1763 415,-1727 480,-1727 480,-1763"/>
<text text-anchor="middle" x="447.5" y="-1742.2" font-family="SimSun" font-size="11.00">RESTCONF</text>
</a>
</g>
</g>
<!-- rfc4741&#45;&gt;draft_ietf_netconf_restconf -->
<g id="edge16" class="edge"><title>rfc4741&#45;&gt;draft_ietf_netconf_restconf</title>
<path fill="none" stroke="#61bd4d" stroke-width="2" d="M266.647,-1484.12C268.064,-1531.12 278.658,-1657.81 350,-1723 364.663,-1736.4 385.759,-1742.18 404.489,-1744.5"/>
<polygon fill="#61bd4d" stroke="#61bd4d" stroke-width="2" points="404.311,-1748 414.596,-1745.45 404.969,-1741.03 404.311,-1748"/>
</g>
<!-- rfc6242 -->
<g id="node12" class="node"><title>rfc6242</title>
<g id="a_node12"><a xlink:href="https://tools.ietf.org/html/rfc6242" xlink:title="NETCONF base 1.1 over SSH\nRFC 6242">
<polygon fill="none" stroke="#6dfedf" stroke-width="2" points="740,-1580 573,-1580 573,-1544 740,-1544 740,-1580"/>
<text text-anchor="middle" x="656.5" y="-1565.2" font-family="SimSun" font-size="11.00">NETCONF base 1.1 over SSH</text>
<text text-anchor="middle" x="656.5" y="-1553.2" font-family="SimSun" font-size="11.00">RFC 6242</text>
</a>
</g>
</g>
<!-- rfc4742&#45;&gt;rfc6242 -->
<g id="edge17" class="edge"><title>rfc4742&#45;&gt;rfc6242</title>
<path fill="none" stroke="#61bd4d" stroke-width="2" d="M531.204,-1562C541.616,-1562 552.32,-1562 562.872,-1562"/>
<polygon fill="#61bd4d" stroke="#61bd4d" stroke-width="2" points="562.927,-1565.5 572.927,-1562 562.927,-1558.5 562.927,-1565.5"/>
</g>
<!-- draft_ietf_netconf_rfc5277bis -->
<g id="node41" class="node"><title>draft_ietf_netconf_rfc5277bis</title>
<g id="a_node41"><a xlink:href="https://tools.ietf.org/html/draft-ietf-netconf-rfc5277bis-01" xlink:title="\nRFC 5277bis">
<polygon fill="none" stroke="#2de0a7" stroke-width="2" points="698,-1443 615,-1443 615,-1407 698,-1407 698,-1443"/>
<text text-anchor="middle" x="656.5" y="-1415.7" font-family="SimSun" font-size="11.00">RFC 5277bis</text>
</a>
</g>
</g>
<!-- rfc5277&#45;&gt;draft_ietf_netconf_rfc5277bis -->
<g id="edge8" class="edge"><title>rfc5277&#45;&gt;draft_ietf_netconf_rfc5277bis</title>
<path fill="none" stroke="#61bd4d" stroke-width="2" d="M516.28,-1425C545.009,-1425 577.924,-1425 604.534,-1425"/>
<polygon fill="#61bd4d" stroke="#61bd4d" stroke-width="2" points="604.773,-1428.5 614.773,-1425 604.773,-1421.5 604.773,-1428.5"/>
</g>
<!-- rfc7589 -->
<g id="node16" class="node"><title>rfc7589</title>
<g id="a_node16"><a xlink:href="https://tools.ietf.org/html/rfc7589" xlink:title="NETCONF over TLS\nRFC 7589">
<polygon fill="none" stroke="#6dfedf" stroke-width="2" points="713,-1634 600,-1634 600,-1598 713,-1598 713,-1634"/>
<text text-anchor="middle" x="656.5" y="-1619.2" font-family="SimSun" font-size="11.00">NETCONF over TLS</text>
<text text-anchor="middle" x="656.5" y="-1607.2" font-family="SimSun" font-size="11.00">RFC 7589</text>
</a>
</g>
</g>
<!-- rfc5539&#45;&gt;rfc7589 -->
<g id="edge18" class="edge"><title>rfc5539&#45;&gt;rfc7589</title>
<path fill="none" stroke="#61bd4d" stroke-width="2" d="M504.245,-1616C530.471,-1616 561.938,-1616 589.363,-1616"/>
<polygon fill="#61bd4d" stroke="#61bd4d" stroke-width="2" points="589.656,-1619.5 599.656,-1616 589.656,-1612.5 589.656,-1619.5"/>
</g>
<!-- rfc6022 -->
<g id="node10" class="node"><title>rfc6022</title>
<g id="a_node10"><a xlink:href="https://tools.ietf.org/html/rfc6022" xlink:title="NETCONF Monitoring\nRFC 6022">
<polygon fill="none" stroke="#6dfedf" stroke-width="2" points="510,-1030 385,-1030 385,-994 510,-994 510,-1030"/>
<text text-anchor="middle" x="447.5" y="-1015.2" font-family="SimSun" font-size="11.00">NETCONF Monitoring</text>
<text text-anchor="middle" x="447.5" y="-1003.2" font-family="SimSun" font-size="11.00">RFC 6022</text>
</a>
</g>
</g>
<!-- draft_bierman_netconf_rfc6536bis -->
<g id="node47" class="node"><title>draft_bierman_netconf_rfc6536bis</title>
<g id="a_node47"><a xlink:href="https://tools.ietf.org/html/draft-bierman-netconf-rfc6536bis-01" xlink:title="\nRFC 6536bis">
<polygon fill="none" stroke="#2de0a7" stroke-width="2" points="698,-1817 615,-1817 615,-1781 698,-1781 698,-1817"/>
<text text-anchor="middle" x="656.5" y="-1789.7" font-family="SimSun" font-size="11.00">RFC 6536bis</text>
</a>
</g>
</g>
<!-- rfc6536&#45;&gt;draft_bierman_netconf_rfc6536bis -->
<g id="edge14" class="edge"><title>rfc6536&#45;&gt;draft_bierman_netconf_rfc6536bis</title>
<path fill="none" stroke="#61bd4d" stroke-width="2" d="M489.397,-1799C522.426,-1799 569.081,-1799 604.539,-1799"/>
<polygon fill="#61bd4d" stroke="#61bd4d" stroke-width="2" points="604.688,-1802.5 614.688,-1799 604.688,-1795.5 604.688,-1802.5"/>
</g>
<!-- rfc6020&#45;&gt;rfc6022 -->
<g id="edge20" class="edge"><title>rfc6020&#45;&gt;rfc6022</title>
<path fill="none" stroke="#61bd4d" stroke-width="2" d="M265.779,-700.343C264.772,-752.655 269.326,-904.01 350,-985 357.09,-992.118 365.892,-997.399 375.273,-1001.31"/>
<polygon fill="#61bd4d" stroke="#61bd4d" stroke-width="2" points="374.211,-1004.65 384.805,-1004.78 376.606,-998.069 374.211,-1004.65"/>
</g>
<!-- rfc6021 -->
<g id="node19" class="node"><title>rfc6021</title>
<g id="a_node19"><a xlink:href="https://tools.ietf.org/html/rfc6021" xlink:title="Common YANG Data Types\nRFC 6021">
<polygon fill="none" stroke="#ae81ff" stroke-width="2" points="522,-646 373,-646 373,-610 522,-610 522,-646"/>
<text text-anchor="middle" x="447.5" y="-631.2" font-family="SimSun" font-size="11.00">Common YANG Data Types</text>
<text text-anchor="middle" x="447.5" y="-619.2" font-family="SimSun" font-size="11.00">RFC 6021</text>
</a>
</g>
</g>
<!-- rfc6020&#45;&gt;rfc6021 -->
<g id="edge19" class="edge"><title>rfc6020&#45;&gt;rfc6021</title>
<path fill="none" stroke="#61bd4d" stroke-width="2" d="M298.364,-669.695C313.829,-663.944 332.753,-657.228 350,-652 354.25,-650.712 358.621,-649.44 363.045,-648.194"/>
<polygon fill="#61bd4d" stroke="#61bd4d" stroke-width="2" points="364.075,-651.541 372.788,-645.513 362.218,-644.791 364.075,-651.541"/>
</g>
<!-- rfc6087 -->
<g id="node20" class="node"><title>rfc6087</title>
<g id="a_node20"><a xlink:href="https://tools.ietf.org/html/rfc6087" xlink:title="Guidelines\nRFC 6087">
<polygon fill="none" stroke="#ae81ff" stroke-width="2" points="486,-592 409,-592 409,-556 486,-556 486,-592"/>
<text text-anchor="middle" x="447.5" y="-577.2" font-family="SimSun" font-size="11.00">Guidelines</text>
<text text-anchor="middle" x="447.5" y="-565.2" font-family="SimSun" font-size="11.00">RFC 6087</text>
</a>
</g>
</g>
<!-- rfc6020&#45;&gt;rfc6087 -->
<g id="edge34" class="edge"><title>rfc6020&#45;&gt;rfc6087</title>
<path fill="none" stroke="#61bd4d" stroke-width="2" d="M280.532,-663.85C295.729,-645.407 321.631,-617.3 350,-601 364.865,-592.459 382.585,-586.493 398.76,-582.384"/>
<polygon fill="#61bd4d" stroke="#61bd4d" stroke-width="2" points="399.665,-585.767 408.592,-580.06 398.055,-578.955 399.665,-585.767"/>
</g>
<!-- rfc6110 -->
<g id="node21" class="node"><title>rfc6110</title>
<g id="a_node21"><a xlink:href="https://tools.ietf.org/html/rfc6110" xlink:title="YANG to DSDL\nRFC 6110">
<polygon fill="none" stroke="#ae81ff" stroke-width="2" points="492,-922 403,-922 403,-886 492,-886 492,-922"/>
<text text-anchor="middle" x="447.5" y="-907.2" font-family="SimSun" font-size="11.00">YANG to DSDL</text>
<text text-anchor="middle" x="447.5" y="-895.2" font-family="SimSun" font-size="11.00">RFC 6110</text>
</a>
</g>
</g>
<!-- rfc6020&#45;&gt;rfc6110 -->
<g id="edge21" class="edge"><title>rfc6020&#45;&gt;rfc6110</title>
<path fill="none" stroke="#61bd4d" stroke-width="2" d="M268.971,-700.093C275.199,-738.575 295.156,-828.945 350,-877 361.914,-887.439 377.561,-893.868 392.778,-897.819"/>
<polygon fill="#61bd4d" stroke="#61bd4d" stroke-width="2" points="392.145,-901.264 402.673,-900.075 393.701,-894.439 392.145,-901.264"/>
</g>
<!-- rfc6020&#45;&gt;rfc6244 -->
<g id="edge32" class="edge"><title>rfc6020&#45;&gt;rfc6244</title>
<path fill="none" stroke="#61bd4d" stroke-width="2" d="M266.855,-700.035C268.784,-746.219 280.525,-869.627 350,-934 361.635,-944.78 377.347,-950.914 392.713,-954.348"/>
<polygon fill="#61bd4d" stroke="#61bd4d" stroke-width="2" points="392.237,-957.82 402.713,-956.236 393.536,-950.941 392.237,-957.82"/>
</g>
<!-- rfc6643 -->
<g id="node23" class="node"><title>rfc6643</title>
<g id="a_node23"><a xlink:href="https://tools.ietf.org/html/rfc6643" xlink:title="MIB to YANG\nRFC 6643">
<polygon fill="none" stroke="#ae81ff" stroke-width="2" points="489,-868 406,-868 406,-832 489,-832 489,-868"/>
<text text-anchor="middle" x="447.5" y="-853.2" font-family="SimSun" font-size="11.00">MIB to YANG</text>
<text text-anchor="middle" x="447.5" y="-841.2" font-family="SimSun" font-size="11.00">RFC 6643</text>
</a>
</g>
</g>
<!-- rfc6020&#45;&gt;rfc6643 -->
<g id="edge22" class="edge"><title>rfc6020&#45;&gt;rfc6643</title>
<path fill="none" stroke="#61bd4d" stroke-width="2" d="M272.615,-700.111C283.489,-729.596 308.982,-787.9 350,-820 363.272,-830.387 380.172,-837.203 396.108,-841.665"/>
<polygon fill="#61bd4d" stroke="#61bd4d" stroke-width="2" points="395.31,-845.073 405.864,-844.15 397.038,-838.29 395.31,-845.073"/>
</g>
<!-- rfc7223 -->
<g id="node25" class="node"><title>rfc7223</title>
<g id="a_node25"><a xlink:href="https://tools.ietf.org/html/rfc7223" xlink:title="Interface YANG\nRFC 7223">
<polygon fill="none" stroke="#ae81ff" stroke-width="2" points="498,-484 397,-484 397,-448 498,-448 498,-484"/>
<text text-anchor="middle" x="447.5" y="-469.2" font-family="SimSun" font-size="11.00">Interface YANG</text>
<text text-anchor="middle" x="447.5" y="-457.2" font-family="SimSun" font-size="11.00">RFC 7223</text>
</a>
</g>
</g>
<!-- rfc6020&#45;&gt;rfc7223 -->
<g id="edge24" class="edge"><title>rfc6020&#45;&gt;rfc7223</title>
<path fill="none" stroke="#61bd4d" stroke-width="2" d="M269.249,-663.883C275.931,-626.248 296.583,-539.267 350,-493 360.476,-483.926 373.777,-477.885 387.13,-473.868"/>
<polygon fill="#61bd4d" stroke="#61bd4d" stroke-width="2" points="388.06,-477.242 396.822,-471.286 386.258,-470.478 388.06,-477.242"/>
</g>
<!-- rfc7224 -->
<g id="node26" class="node"><title>rfc7224</title>
<g id="a_node26"><a xlink:href="https://tools.ietf.org/html/rfc7224" xlink:title="Interface Type YANG\nRFC 7224">
<polygon fill="none" stroke="#ae81ff" stroke-width="2" points="513,-430 382,-430 382,-394 513,-394 513,-430"/>
<text text-anchor="middle" x="447.5" y="-415.2" font-family="SimSun" font-size="11.00">Interface Type YANG</text>
<text text-anchor="middle" x="447.5" y="-403.2" font-family="SimSun" font-size="11.00">RFC 7224</text>
</a>
</g>
</g>
<!-- rfc6020&#45;&gt;rfc7224 -->
<g id="edge25" class="edge"><title>rfc6020&#45;&gt;rfc7224</title>
<path fill="none" stroke="#61bd4d" stroke-width="2" d="M267.243,-663.725C270.086,-618.678 283.808,-501.45 350,-439 356.436,-432.928 364.123,-428.203 372.311,-424.53"/>
<polygon fill="#61bd4d" stroke="#61bd4d" stroke-width="2" points="373.711,-427.74 381.727,-420.813 371.141,-421.229 373.711,-427.74"/>
</g>
<!-- rfc7277 -->
<g id="node27" class="node"><title>rfc7277</title>
<g id="a_node27"><a xlink:href="https://tools.ietf.org/html/rfc7277" xlink:title="IP YANG\nRFC 7277">
<polygon fill="none" stroke="#ae81ff" stroke-width="2" points="480,-376 415,-376 415,-340 480,-340 480,-376"/>
<text text-anchor="middle" x="447.5" y="-361.2" font-family="SimSun" font-size="11.00">IP YANG</text>
<text text-anchor="middle" x="447.5" y="-349.2" font-family="SimSun" font-size="11.00">RFC 7277</text>
</a>
</g>
</g>
<!-- rfc6020&#45;&gt;rfc7277 -->
<g id="edge26" class="edge"><title>rfc6020&#45;&gt;rfc7277</title>
<path fill="none" stroke="#61bd4d" stroke-width="2" d="M265.901,-663.642C265.262,-612.003 270.794,-464.106 350,-385 364.399,-370.619 385.787,-363.743 404.772,-360.516"/>
<polygon fill="#61bd4d" stroke="#61bd4d" stroke-width="2" points="405.309,-363.975 414.72,-359.108 404.328,-357.044 405.309,-363.975"/>
</g>
<!-- rfc7317 -->
<g id="node28" class="node"><title>rfc7317</title>
<g id="a_node28"><a xlink:href="https://tools.ietf.org/html/rfc7317" xlink:title="System Management YANG\nRFC 7317">
<polygon fill="none" stroke="#ae81ff" stroke-width="2" points="522,-322 373,-322 373,-286 522,-286 522,-322"/>
<text text-anchor="middle" x="447.5" y="-307.2" font-family="SimSun" font-size="11.00">System Management YANG</text>
<text text-anchor="middle" x="447.5" y="-295.2" font-family="SimSun" font-size="11.00">RFC 7317</text>
</a>
</g>
</g>
<!-- rfc6020&#45;&gt;rfc7317 -->
<g id="edge27" class="edge"><title>rfc6020&#45;&gt;rfc7317</title>
<path fill="none" stroke="#61bd4d" stroke-width="2" d="M268.394,-663.904C275.526,-599.134 302.788,-380.104 350,-331 354.094,-326.742 358.799,-323.139 363.882,-320.091"/>
<polygon fill="#61bd4d" stroke="#61bd4d" stroke-width="2" points="365.5,-323.195 372.751,-315.469 362.265,-316.987 365.5,-323.195"/>
</g>
<!-- rfc7407 -->
<g id="node29" class="node"><title>rfc7407</title>
<g id="a_node29"><a xlink:href="https://tools.ietf.org/html/rfc7407" xlink:title="SNMP YANG\nRFC 7407">
<polygon fill="none" stroke="#ae81ff" stroke-width="2" points="483,-538 412,-538 412,-502 483,-502 483,-538"/>
<text text-anchor="middle" x="447.5" y="-523.2" font-family="SimSun" font-size="11.00">SNMP YANG</text>
<text text-anchor="middle" x="447.5" y="-511.2" font-family="SimSun" font-size="11.00">RFC 7407</text>
</a>
</g>
</g>
<!-- rfc6020&#45;&gt;rfc7407 -->
<g id="edge28" class="edge"><title>rfc6020&#45;&gt;rfc7407</title>
<path fill="none" stroke="#61bd4d" stroke-width="2" d="M272.803,-663.679C283.793,-634.499 309.255,-577.645 350,-547 364.877,-535.811 384.176,-529.259 401.601,-525.422"/>
<polygon fill="#61bd4d" stroke="#61bd4d" stroke-width="2" points="402.458,-528.82 411.597,-523.461 401.111,-521.951 402.458,-528.82"/>
</g>
<!-- rfc7950 -->
<g id="node30" class="node"><title>rfc7950</title>
<g id="a_node30"><a xlink:href="https://tools.ietf.org/html/rfc7950" xlink:title="YANG 1.1\nRFC 7950">
<polygon fill="none" stroke="#ae81ff" stroke-width="2" points="480,-700 415,-700 415,-664 480,-664 480,-700"/>
<text text-anchor="middle" x="447.5" y="-685.2" font-family="SimSun" font-size="11.00">YANG 1.1</text>
<text text-anchor="middle" x="447.5" y="-673.2" font-family="SimSun" font-size="11.00">RFC 7950</text>
</a>
</g>
</g>
<!-- rfc6020&#45;&gt;rfc7950 -->
<g id="edge23" class="edge"><title>rfc6020&#45;&gt;rfc7950</title>
<path fill="none" stroke="#61bd4d" stroke-width="2" d="M298.266,-682C327.864,-682 372.187,-682 404.657,-682"/>
<polygon fill="#61bd4d" stroke="#61bd4d" stroke-width="2" points="404.749,-685.5 414.749,-682 404.749,-678.5 404.749,-685.5"/>
</g>
<!-- rfc7951 -->
<g id="node31" class="node"><title>rfc7951</title>
<g id="a_node31"><a xlink:href="https://tools.ietf.org/html/rfc7951" xlink:title="JSON for YANG\nRFC 7951">
<polygon fill="none" stroke="#ae81ff" stroke-width="2" points="495,-754 400,-754 400,-718 495,-718 495,-754"/>
<text text-anchor="middle" x="447.5" y="-739.2" font-family="SimSun" font-size="11.00">JSON for YANG</text>
<text text-anchor="middle" x="447.5" y="-727.2" font-family="SimSun" font-size="11.00">RFC 7951</text>
</a>
</g>
</g>
<!-- rfc6020&#45;&gt;rfc7951 -->
<g id="edge29" class="edge"><title>rfc6020&#45;&gt;rfc7951</title>
<path fill="none" stroke="#61bd4d" stroke-width="2" d="M298.127,-692.555C313.702,-697.669 332.787,-703.811 350,-709 362.875,-712.881 376.773,-716.88 389.902,-720.572"/>
<polygon fill="#61bd4d" stroke="#61bd4d" stroke-width="2" points="389.189,-724.007 399.762,-723.328 391.074,-717.265 389.189,-724.007"/>
</g>
<!-- rfc7952 -->
<g id="node32" class="node"><title>rfc7952</title>
<g id="a_node32"><a xlink:href="https://tools.ietf.org/html/rfc7952" xlink:title="YANG metadata\nRFC 7952">
<polygon fill="none" stroke="#ae81ff" stroke-width="2" points="495,-808 400,-808 400,-772 495,-772 495,-808"/>
<text text-anchor="middle" x="447.5" y="-793.2" font-family="SimSun" font-size="11.00">YANG metadata</text>
<text text-anchor="middle" x="447.5" y="-781.2" font-family="SimSun" font-size="11.00">RFC 7952</text>
</a>
</g>
</g>
<!-- rfc6020&#45;&gt;rfc7952 -->
<g id="edge30" class="edge"><title>rfc6020&#45;&gt;rfc7952</title>
<path fill="none" stroke="#61bd4d" stroke-width="2" d="M280.532,-700.15C295.729,-718.593 321.631,-746.7 350,-763 362.26,-770.044 376.461,-775.337 390.136,-779.28"/>
<polygon fill="#61bd4d" stroke="#61bd4d" stroke-width="2" points="389.4,-782.706 399.965,-781.919 391.215,-775.946 389.4,-782.706"/>
</g>
<!-- rfc6991 -->
<g id="node24" class="node"><title>rfc6991</title>
<g id="a_node24"><a xlink:href="https://tools.ietf.org/html/rfc6991" xlink:title="Common YANG Data Types\nRFC 6991">
<polygon fill="none" stroke="#ae81ff" stroke-width="2" points="731,-646 582,-646 582,-610 731,-610 731,-646"/>
<text text-anchor="middle" x="656.5" y="-631.2" font-family="SimSun" font-size="11.00">Common YANG Data Types</text>
<text text-anchor="middle" x="656.5" y="-619.2" font-family="SimSun" font-size="11.00">RFC 6991</text>
</a>
</g>
</g>
<!-- rfc6021&#45;&gt;rfc6991 -->
<g id="edge31" class="edge"><title>rfc6021&#45;&gt;rfc6991</title>
<path fill="none" stroke="#61bd4d" stroke-width="2" d="M522.063,-628C538.134,-628 555.259,-628 571.695,-628"/>
<polygon fill="#61bd4d" stroke="#61bd4d" stroke-width="2" points="571.825,-631.5 581.825,-628 571.825,-624.5 571.825,-631.5"/>
</g>
<!-- draft_ietf_netmod_rfc6087bis -->
<g id="node53" class="node"><title>draft_ietf_netmod_rfc6087bis</title>
<g id="a_node53"><a xlink:href="https://tools.ietf.org/html/draft-ietf-netmod-rfc6087bis-09" xlink:title="\nRFC 6087bis">
<polygon fill="none" stroke="#ff6f9f" stroke-width="2" points="698,-592 615,-592 615,-556 698,-556 698,-592"/>
<text text-anchor="middle" x="656.5" y="-564.7" font-family="SimSun" font-size="11.00">RFC 6087bis</text>
</a>
</g>
</g>
<!-- rfc6087&#45;&gt;draft_ietf_netmod_rfc6087bis -->
<g id="edge35" class="edge"><title>rfc6087&#45;&gt;draft_ietf_netmod_rfc6087bis</title>
<path fill="none" stroke="#61bd4d" stroke-width="2" d="M486.467,-574C519.611,-574 567.986,-574 604.502,-574"/>
<polygon fill="#61bd4d" stroke="#61bd4d" stroke-width="2" points="604.943,-577.5 614.943,-574 604.943,-570.5 604.943,-577.5"/>
</g>
<!-- rfc8022 -->
<g id="node33" class="node"><title>rfc8022</title>
<g id="a_node33"><a xlink:href="https://tools.ietf.org/html/rfc8022" xlink:title="Routing YANG\nRFC 8022">
<polygon fill="none" stroke="#ae81ff" stroke-width="2" points="492,-268 403,-268 403,-232 492,-232 492,-268"/>
<text text-anchor="middle" x="447.5" y="-253.2" font-family="SimSun" font-size="11.00">Routing YANG</text>
<text text-anchor="middle" x="447.5" y="-241.2" font-family="SimSun" font-size="11.00">RFC 8022</text>
</a>
</g>
</g>
<!-- draft_ietf_netconf_call_home -->
<g id="node34" class="node"><title>draft_ietf_netconf_call_home</title>
<g id="a_node34"><a xlink:href="https://tools.ietf.org/html/draft-ietf-netconf-call-home-17" xlink:title="NETCONF Call Home">
<polygon fill="none" stroke="#2de0a7" stroke-width="2" points="146,-1200 27,-1200 27,-1164 146,-1164 146,-1200"/>
<text text-anchor="middle" x="86.5" y="-1179.2" font-family="SimSun" font-size="11.00">NETCONF Call Home</text>
</a>
</g>
</g>
<!-- draft_ietf_netconf_keystore -->
<g id="node35" class="node"><title>draft_ietf_netconf_keystore</title>
<g id="a_node35"><a xlink:href="https://tools.ietf.org/html/draft-ietf-netconf-keystore-00" xlink:title="Keystore">
<polygon fill="none" stroke="#2de0a7" stroke-width="2" points="119,-1254 54,-1254 54,-1218 119,-1218 119,-1254"/>
<text text-anchor="middle" x="86.5" y="-1233.2" font-family="SimSun" font-size="11.00">Keystore</text>
</a>
</g>
</g>
<!-- draft_ietf_netconf_netconf_client_server -->
<g id="node36" class="node"><title>draft_ietf_netconf_netconf_client_server</title>
<g id="a_node36"><a xlink:href="https://tools.ietf.org/html/draft-ietf-netconf-netconf-client-server-01" xlink:title="netconf&#45;client&#45;server">
<polygon fill="none" stroke="#2de0a7" stroke-width="2" points="158,-1308 15,-1308 15,-1272 158,-1272 158,-1308"/>
<text text-anchor="middle" x="86.5" y="-1287.2" font-family="SimSun" font-size="11.00">netconf&#45;client&#45;server</text>
</a>
</g>
</g>
<!-- draft_ietf_netconf_netconf_event_notifications -->
<g id="node37" class="node"><title>draft_ietf_netconf_netconf_event_notifications</title>
<g id="a_node37"><a xlink:href="https://tools.ietf.org/html/draft-ietf-netconf-netconf-event-notifications-01" xlink:title="netconf&#45;event&#45;notifications">
<polygon fill="none" stroke="#2de0a7" stroke-width="2" points="537,-1389 358,-1389 358,-1353 537,-1353 537,-1389"/>
<text text-anchor="middle" x="447.5" y="-1368.2" font-family="SimSun" font-size="11.00">netconf&#45;event&#45;notifications</text>
</a>
</g>
</g>
<!-- draft_ietf_netconf_restconf_client_server -->
<g id="node39" class="node"><title>draft_ietf_netconf_restconf_client_server</title>
<g id="a_node39"><a xlink:href="https://tools.ietf.org/html/draft-ietf-netconf-restconf-client-server-01" xlink:title="restconf&#45;client&#45;server">
<polygon fill="none" stroke="#2de0a7" stroke-width="2" points="161,-1362 12,-1362 12,-1326 161,-1326 161,-1362"/>
<text text-anchor="middle" x="86.5" y="-1341.2" font-family="SimSun" font-size="11.00">restconf&#45;client&#45;server</text>
</a>
</g>
</g>
<!-- draft_ietf_netconf_restconf_notif -->
<g id="node40" class="node"><title>draft_ietf_netconf_restconf_notif</title>
<g id="a_node40"><a xlink:href="https://tools.ietf.org/html/draft-ietf-netconf-restconf-notif-01" xlink:title="restconf&#45;notif">
<polygon fill="none" stroke="#2de0a7" stroke-width="2" points="137,-1416 36,-1416 36,-1380 137,-1380 137,-1416"/>
<text text-anchor="middle" x="86.5" y="-1395.2" font-family="SimSun" font-size="11.00">restconf&#45;notif</text>
</a>
</g>
</g>
<!-- draft_ietf_netconf_ssh_client_server -->
<g id="node42" class="node"><title>draft_ietf_netconf_ssh_client_server</title>
<g id="a_node42"><a xlink:href="https://tools.ietf.org/html/draft-ietf-netconf-ssh-client-server-01" xlink:title="ssh&#45;client&#45;server">
<polygon fill="none" stroke="#2de0a7" stroke-width="2" points="146,-1470 27,-1470 27,-1434 146,-1434 146,-1470"/>
<text text-anchor="middle" x="86.5" y="-1449.2" font-family="SimSun" font-size="11.00">ssh&#45;client&#45;server</text>
</a>
</g>
</g>
<!-- draft_ietf_netconf_tls_client_server -->
<g id="node43" class="node"><title>draft_ietf_netconf_tls_client_server</title>
<g id="a_node43"><a xlink:href="https://tools.ietf.org/html/draft-ietf-netconf-tls-client-server-01" xlink:title="tls&#45;client&#45;server">
<polygon fill="none" stroke="#2de0a7" stroke-width="2" points="146,-1524 27,-1524 27,-1488 146,-1488 146,-1524"/>
<text text-anchor="middle" x="86.5" y="-1503.2" font-family="SimSun" font-size="11.00">tls&#45;client&#45;server</text>
</a>
</g>
</g>
<!-- draft_ietf_netconf_yang_patch -->
<g id="node44" class="node"><title>draft_ietf_netconf_yang_patch</title>
<g id="a_node44"><a xlink:href="https://tools.ietf.org/html/draft-ietf-netconf-yang-patch-14" xlink:title="yang patch">
<polygon fill="none" stroke="#2de0a7" stroke-width="2" points="125,-1578 48,-1578 48,-1542 125,-1542 125,-1578"/>
<text text-anchor="middle" x="86.5" y="-1557.2" font-family="SimSun" font-size="11.00">yang patch</text>
</a>
</g>
</g>
<!-- draft_ietf_netconf_yang_push -->
<g id="node45" class="node"><title>draft_ietf_netconf_yang_push</title>
<g id="a_node45"><a xlink:href="https://tools.ietf.org/html/draft-ietf-netconf-yang-push-04" xlink:title="yang&#45;push">
<polygon fill="none" stroke="#2de0a7" stroke-width="2" points="483,-1335 412,-1335 412,-1299 483,-1299 483,-1335"/>
<text text-anchor="middle" x="447.5" y="-1314.2" font-family="SimSun" font-size="11.00">yang&#45;push</text>
</a>
</g>
</g>
<!-- draft_ietf_netconf_zerotouch -->
<g id="node46" class="node"><title>draft_ietf_netconf_zerotouch</title>
<g id="a_node46"><a xlink:href="https://tools.ietf.org/html/draft-ietf-netconf-zerotouch-11" xlink:title="zerotouch">
<polygon fill="none" stroke="#2de0a7" stroke-width="2" points="122,-1632 51,-1632 51,-1596 122,-1596 122,-1632"/>
<text text-anchor="middle" x="86.5" y="-1611.2" font-family="SimSun" font-size="11.00">zerotouch</text>
</a>
</g>
</g>
<!-- draft_ietf_netmod_acl_model -->
<g id="node48" class="node"><title>draft_ietf_netmod_acl_model</title>
<g id="a_node48"><a xlink:href="https://tools.ietf.org/html/draft-ietf-netmod-acl-model-09" xlink:title="acl&#45;model">
<polygon fill="none" stroke="#ff6f9f" stroke-width="2" points="483,-214 412,-214 412,-178 483,-178 483,-214"/>
<text text-anchor="middle" x="447.5" y="-193.2" font-family="SimSun" font-size="11.00">acl&#45;model</text>
</a>
</g>
</g>
<!-- draft_ietf_netmod_entity -->
<g id="node49" class="node"><title>draft_ietf_netmod_entity</title>
<g id="a_node49"><a xlink:href="https://tools.ietf.org/html/draft-ietf-netmod-entity-01" xlink:title="entity&#45;model">
<polygon fill="none" stroke="#ff6f9f" stroke-width="2" points="492,-160 403,-160 403,-124 492,-124 492,-160"/>
<text text-anchor="middle" x="447.5" y="-139.2" font-family="SimSun" font-size="11.00">entity&#45;model</text>
</a>
</g>
</g>
<!-- draft_ietf_netmod_intf_ext_yang -->
<g id="node50" class="node"><title>draft_ietf_netmod_intf_ext_yang</title>
<g id="a_node50"><a xlink:href="https://tools.ietf.org/html/draft-ietf-netmod-intf-ext-yang-03" xlink:title="intf&#45;ext&#45;yang">
<polygon fill="none" stroke="#ff6f9f" stroke-width="2" points="495,-106 400,-106 400,-70 495,-70 495,-106"/>
<text text-anchor="middle" x="447.5" y="-85.2" font-family="SimSun" font-size="11.00">intf&#45;ext&#45;yang</text>
</a>
</g>
</g>
<!-- draft_ietf_netmod_opstate_reqs -->
<g id="node51" class="node"><title>draft_ietf_netmod_opstate_reqs</title>
<g id="a_node51"><a xlink:href="https://tools.ietf.org/html/draft-ietf-netmod-opstate-reqs-04" xlink:title="opstate&#45;reqs">
<polygon fill="none" stroke="#ff6f9f" stroke-width="2" points="131,-1686 42,-1686 42,-1650 131,-1650 131,-1686"/>
<text text-anchor="middle" x="86.5" y="-1665.2" font-family="SimSun" font-size="11.00">opstate&#45;reqs</text>
</a>
</g>
</g>
<!-- draft_ietf_netmod_revised_datastores -->
<g id="node52" class="node"><title>draft_ietf_netmod_revised_datastores</title>
<g id="a_node52"><a xlink:href="https://tools.ietf.org/html/draft-ietf-netmod-revised-datastores-00" xlink:title="revised&#45;datastores">
<polygon fill="none" stroke="#ff6f9f" stroke-width="2" points="149,-1740 24,-1740 24,-1704 149,-1704 149,-1740"/>
<text text-anchor="middle" x="86.5" y="-1719.2" font-family="SimSun" font-size="11.00">revised&#45;datastores</text>
</a>
</g>
</g>
<!-- draft_ietf_netmod_schema_mount -->
<g id="node54" class="node"><title>draft_ietf_netmod_schema_mount</title>
<g id="a_node54"><a xlink:href="https://tools.ietf.org/html/draft-ietf-netmod-schema-mount-03" xlink:title="schema&#45;mount">
<polygon fill="none" stroke="#ff6f9f" stroke-width="2" points="131,-1794 42,-1794 42,-1758 131,-1758 131,-1794"/>
<text text-anchor="middle" x="86.5" y="-1773.2" font-family="SimSun" font-size="11.00">schema&#45;mount</text>
</a>
</g>
</g>
<!-- draft_ietf_netmod_syslog_model -->
<g id="node55" class="node"><title>draft_ietf_netmod_syslog_model</title>
<g id="a_node55"><a xlink:href="https://tools.ietf.org/html/draft-ietf-netmod-syslog-model-11" xlink:title="syslog&#45;model">
<polygon fill="none" stroke="#ff6f9f" stroke-width="2" points="492,-52 403,-52 403,-16 492,-16 492,-52"/>
<text text-anchor="middle" x="447.5" y="-31.2" font-family="SimSun" font-size="11.00">syslog&#45;model</text>
</a>
</g>
</g>
<!-- draft_ietf_netmod_yang_model_classification -->
<g id="node56" class="node"><title>draft_ietf_netmod_yang_model_classification</title>
<g id="a_node56"><a xlink:href="https://tools.ietf.org/html/draft-ietf-netmod-yang-model-classification-04" xlink:title="yang&#45;model&#45;classification">
<polygon fill="none" stroke="#ff6f9f" stroke-width="2" points="170,-1848 3,-1848 3,-1812 170,-1812 170,-1848"/>
<text text-anchor="middle" x="86.5" y="-1827.2" font-family="SimSun" font-size="11.00">yang&#45;model&#45;classification</text>
</a>
</g>
</g>
</g>
</svg>
