<?xml version="1.0" encoding="UTF-8" standalone="no"?>
<!DOCTYPE svg PUBLIC "-//W3C//DTD SVG 1.1//EN"
 "http://www.w3.org/Graphics/SVG/1.1/DTD/svg11.dtd">
<!-- Generated by graphviz version 2.38.0 (20140413.2041)
 -->
<!-- Title: roadmap Pages: 1 -->
<svg width="332pt" height="1110pt"
 viewBox="0.00 0.00 332.00 1110.00" xmlns="http://www.w3.org/2000/svg" xmlns:xlink="http://www.w3.org/1999/xlink">
<g id="graph0" class="graph" transform="scale(1 1) rotate(0) translate(4 1106)">
<title>roadmap</title>
<polygon fill="white" stroke="none" points="-4,4 -4,-1106 328,-1106 328,4 -4,4"/>
<!-- rfc3535 -->
<g id="node1" class="node"><title>rfc3535</title>
<g id="a_node1"><a xlink:href="https://tools.ietf.org/html/rfc3535" xlink:title="rfc3535">
<polygon fill="none" stroke="#61bd4d" stroke-width="2" points="54,-400 0,-400 0,-364 54,-364 54,-400"/>
<text text-anchor="middle" x="27" y="-379.2" font-family="Times New Roman,serif" font-size="11.00">rfc3535</text>
</a>
</g>
</g>
<!-- rfc4741 -->
<g id="node2" class="node"><title>rfc4741</title>
<g id="a_node2"><a xlink:href="https://tools.ietf.org/html/rfc4741" xlink:title="rfc4741">
<polygon fill="none" stroke="#cccccc" stroke-width="2" points="144,-549 90,-549 90,-513 144,-513 144,-549"/>
<text text-anchor="middle" x="117" y="-528.2" font-family="Times New Roman,serif" font-size="11.00">rfc4741</text>
</a>
</g>
</g>
<!-- rfc3535&#45;&gt;rfc4741 -->
<g id="edge1" class="edge"><title>rfc3535&#45;&gt;rfc4741</title>
<path fill="none" stroke="#cccccc" stroke-width="2" d="M46.9437,-400.252C49.455,-403.068 51.8875,-406.031 54,-409 75.3996,-439.08 93.6618,-477.588 104.712,-503.212"/>
<polygon fill="#cccccc" stroke="#cccccc" stroke-width="2" points="101.601,-504.841 108.722,-512.686 108.047,-502.113 101.601,-504.841"/>
</g>
<!-- rfc6020 -->
<g id="node9" class="node"><title>rfc6020</title>
<g id="a_node9"><a xlink:href="https://tools.ietf.org/html/rfc6020" xlink:title="rfc6020">
<polygon fill="none" stroke="#cccccc" stroke-width="2" points="144,-252 90,-252 90,-216 144,-216 144,-252"/>
<text text-anchor="middle" x="117" y="-231.2" font-family="Times New Roman,serif" font-size="11.00">rfc6020</text>
</a>
</g>
</g>
<!-- rfc3535&#45;&gt;rfc6020 -->
<g id="edge2" class="edge"><title>rfc3535&#45;&gt;rfc6020</title>
<path fill="none" stroke="#cccccc" stroke-width="2" d="M38.7905,-363.852C54.0967,-338.11 82.2214,-290.81 99.9713,-260.957"/>
<polygon fill="#cccccc" stroke="#cccccc" stroke-width="2" points="103.019,-262.68 105.121,-252.296 97.002,-259.103 103.019,-262.68"/>
</g>
<!-- rfc4742 -->
<g id="node3" class="node"><title>rfc4742</title>
<g id="a_node3"><a xlink:href="https://tools.ietf.org/html/rfc4742" xlink:title="rfc4742">
<polygon fill="none" stroke="#cccccc" stroke-width="2" points="234,-684 180,-684 180,-648 234,-648 234,-684"/>
<text text-anchor="middle" x="207" y="-663.2" font-family="Times New Roman,serif" font-size="11.00">rfc4742</text>
</a>
</g>
</g>
<!-- rfc4741&#45;&gt;rfc4742 -->
<g id="edge3" class="edge"><title>rfc4741&#45;&gt;rfc4742</title>
<path fill="none" stroke="#cccccc" stroke-width="2" d="M126.627,-549.033C137.6,-571.177 157.808,-609.431 180,-639 180.283,-639.377 180.571,-639.755 180.864,-640.133"/>
<polygon fill="#cccccc" stroke="#cccccc" stroke-width="2" points="178.338,-642.567 187.465,-647.947 183.686,-638.049 178.338,-642.567"/>
</g>
<!-- rfc4743 -->
<g id="node4" class="node"><title>rfc4743</title>
<g id="a_node4"><a xlink:href="https://tools.ietf.org/html/rfc4743" xlink:title="rfc4743">
<polygon fill="none" stroke="#cccccc" stroke-width="2" points="234,-630 180,-630 180,-594 234,-594 234,-630"/>
<text text-anchor="middle" x="207" y="-609.2" font-family="Times New Roman,serif" font-size="11.00">rfc4743</text>
</a>
</g>
</g>
<!-- rfc4741&#45;&gt;rfc4743 -->
<g id="edge4" class="edge"><title>rfc4741&#45;&gt;rfc4743</title>
<path fill="none" stroke="#cccccc" stroke-width="2" d="M137.969,-549.38C150.092,-560.539 165.727,-574.931 178.951,-587.103"/>
<polygon fill="#cccccc" stroke="#cccccc" stroke-width="2" points="176.686,-589.774 186.414,-593.972 181.426,-584.624 176.686,-589.774"/>
</g>
<!-- rfc4744 -->
<g id="node5" class="node"><title>rfc4744</title>
<g id="a_node5"><a xlink:href="https://tools.ietf.org/html/rfc4744" xlink:title="rfc4744">
<polygon fill="none" stroke="#cccccc" stroke-width="2" points="234,-576 180,-576 180,-540 234,-540 234,-576"/>
<text text-anchor="middle" x="207" y="-555.2" font-family="Times New Roman,serif" font-size="11.00">rfc4744</text>
</a>
</g>
</g>
<!-- rfc4741&#45;&gt;rfc4744 -->
<g id="edge5" class="edge"><title>rfc4741&#45;&gt;rfc4744</title>
<path fill="none" stroke="#cccccc" stroke-width="2" d="M144.403,-539.101C152.481,-541.579 161.507,-544.349 170.105,-546.987"/>
<polygon fill="#cccccc" stroke="#cccccc" stroke-width="2" points="169.332,-550.411 179.919,-549.998 171.386,-543.719 169.332,-550.411"/>
</g>
<!-- rfc5277 -->
<g id="node6" class="node"><title>rfc5277</title>
<g id="a_node6"><a xlink:href="https://tools.ietf.org/html/rfc5277" xlink:title="rfc5277">
<polygon fill="none" stroke="#cccccc" stroke-width="2" points="234,-522 180,-522 180,-486 234,-486 234,-522"/>
<text text-anchor="middle" x="207" y="-501.2" font-family="Times New Roman,serif" font-size="11.00">rfc5277</text>
</a>
</g>
</g>
<!-- rfc4741&#45;&gt;rfc5277 -->
<g id="edge7" class="edge"><title>rfc4741&#45;&gt;rfc5277</title>
<path fill="none" stroke="#cccccc" stroke-width="2" d="M144.403,-522.899C152.481,-520.421 161.507,-517.651 170.105,-515.013"/>
<polygon fill="#cccccc" stroke="#cccccc" stroke-width="2" points="171.386,-518.281 179.919,-512.002 169.332,-511.589 171.386,-518.281"/>
</g>
<!-- rfc6241 -->
<g id="node14" class="node"><title>rfc6241</title>
<g id="a_node14"><a xlink:href="https://tools.ietf.org/html/rfc6241" xlink:title="rfc6241">
<polygon fill="none" stroke="#cccccc" stroke-width="2" points="234,-468 180,-468 180,-432 234,-432 234,-468"/>
<text text-anchor="middle" x="207" y="-447.2" font-family="Times New Roman,serif" font-size="11.00">rfc6241</text>
</a>
</g>
</g>
<!-- rfc4741&#45;&gt;rfc6241 -->
<g id="edge6" class="edge"><title>rfc4741&#45;&gt;rfc6241</title>
<path fill="none" stroke="#cccccc" stroke-width="2" d="M137.969,-512.62C150.092,-501.461 165.727,-487.069 178.951,-474.897"/>
<polygon fill="#cccccc" stroke="#cccccc" stroke-width="2" points="181.426,-477.376 186.414,-468.028 176.686,-472.226 181.426,-477.376"/>
</g>
<!-- rfc6242 -->
<g id="node15" class="node"><title>rfc6242</title>
<g id="a_node15"><a xlink:href="https://tools.ietf.org/html/rfc6242" xlink:title="rfc6242">
<polygon fill="none" stroke="#cccccc" stroke-width="2" points="324,-684 270,-684 270,-648 324,-648 324,-684"/>
<text text-anchor="middle" x="297" y="-663.2" font-family="Times New Roman,serif" font-size="11.00">rfc6242</text>
</a>
</g>
</g>
<!-- rfc4742&#45;&gt;rfc6242 -->
<g id="edge8" class="edge"><title>rfc4742&#45;&gt;rfc6242</title>
<path fill="none" stroke="#cccccc" stroke-width="2" d="M234.403,-666C242.393,-666 251.311,-666 259.824,-666"/>
<polygon fill="#cccccc" stroke="#cccccc" stroke-width="2" points="259.919,-669.5 269.919,-666 259.919,-662.5 259.919,-669.5"/>
</g>
<!-- rfc5539 -->
<g id="node7" class="node"><title>rfc5539</title>
<g id="a_node7"><a xlink:href="https://tools.ietf.org/html/rfc5539" xlink:title="rfc5539">
<polygon fill="none" stroke="#cccccc" stroke-width="2" points="54,-454 0,-454 0,-418 54,-418 54,-454"/>
<text text-anchor="middle" x="27" y="-433.2" font-family="Times New Roman,serif" font-size="11.00">rfc5539</text>
</a>
</g>
</g>
<!-- rfc5717 -->
<g id="node8" class="node"><title>rfc5717</title>
<g id="a_node8"><a xlink:href="https://tools.ietf.org/html/rfc5717" xlink:title="rfc5717">
<polygon fill="none" stroke="#cccccc" stroke-width="2" points="54,-508 0,-508 0,-472 54,-472 54,-508"/>
<text text-anchor="middle" x="27" y="-487.2" font-family="Times New Roman,serif" font-size="11.00">rfc5717</text>
</a>
</g>
</g>
<!-- rfc6021 -->
<g id="node10" class="node"><title>rfc6021</title>
<g id="a_node10"><a xlink:href="https://tools.ietf.org/html/rfc6021" xlink:title="rfc6021">
<polygon fill="none" stroke="#cccccc" stroke-width="2" points="234,-414 180,-414 180,-378 234,-378 234,-414"/>
<text text-anchor="middle" x="207" y="-393.2" font-family="Times New Roman,serif" font-size="11.00">rfc6021</text>
</a>
</g>
</g>
<!-- rfc6020&#45;&gt;rfc6021 -->
<g id="edge9" class="edge"><title>rfc6020&#45;&gt;rfc6021</title>
<path fill="none" stroke="#cccccc" stroke-width="2" d="M124.074,-252.041C133.595,-278.917 153.698,-330.433 180,-369 180.192,-369.282 180.388,-369.564 180.586,-369.846"/>
<polygon fill="#cccccc" stroke="#cccccc" stroke-width="2" points="177.977,-372.187 186.948,-377.824 183.45,-367.823 177.977,-372.187"/>
</g>
<!-- rfc6022 -->
<g id="node11" class="node"><title>rfc6022</title>
<g id="a_node11"><a xlink:href="https://tools.ietf.org/html/rfc6022" xlink:title="rfc6022">
<polygon fill="none" stroke="#cccccc" stroke-width="2" points="234,-360 180,-360 180,-324 234,-324 234,-360"/>
<text text-anchor="middle" x="207" y="-339.2" font-family="Times New Roman,serif" font-size="11.00">rfc6022</text>
</a>
</g>
</g>
<!-- rfc6020&#45;&gt;rfc6022 -->
<g id="edge10" class="edge"><title>rfc6020&#45;&gt;rfc6022</title>
<path fill="none" stroke="#cccccc" stroke-width="2" d="M130.983,-252.154C143.154,-268.879 162.109,-294.182 180,-315 180.398,-315.463 180.801,-315.928 181.209,-316.394"/>
<polygon fill="#cccccc" stroke="#cccccc" stroke-width="2" points="178.773,-318.918 188.09,-323.962 183.952,-314.208 178.773,-318.918"/>
</g>
<!-- rfc7223 -->
<g id="node22" class="node"><title>rfc7223</title>
<g id="a_node22"><a xlink:href="https://tools.ietf.org/html/rfc7223" xlink:title="rfc7223">
<polygon fill="none" stroke="#cccccc" stroke-width="2" points="234,-306 180,-306 180,-270 234,-270 234,-306"/>
<text text-anchor="middle" x="207" y="-285.2" font-family="Times New Roman,serif" font-size="11.00">rfc7223</text>
</a>
</g>
</g>
<!-- rfc6020&#45;&gt;rfc7223 -->
<g id="edge12" class="edge"><title>rfc6020&#45;&gt;rfc7223</title>
<path fill="none" stroke="#cccccc" stroke-width="2" d="M144.403,-250.202C152.832,-255.374 162.293,-261.18 171.224,-266.66"/>
<polygon fill="#cccccc" stroke="#cccccc" stroke-width="2" points="169.565,-269.749 179.919,-271.996 173.226,-263.782 169.565,-269.749"/>
</g>
<!-- rfc7224 -->
<g id="node23" class="node"><title>rfc7224</title>
<g id="a_node23"><a xlink:href="https://tools.ietf.org/html/rfc7224" xlink:title="rfc7224">
<polygon fill="none" stroke="#cccccc" stroke-width="2" points="234,-252 180,-252 180,-216 234,-216 234,-252"/>
<text text-anchor="middle" x="207" y="-231.2" font-family="Times New Roman,serif" font-size="11.00">rfc7224</text>
</a>
</g>
</g>
<!-- rfc6020&#45;&gt;rfc7224 -->
<g id="edge13" class="edge"><title>rfc6020&#45;&gt;rfc7224</title>
<path fill="none" stroke="#cccccc" stroke-width="2" d="M144.403,-234C152.393,-234 161.311,-234 169.824,-234"/>
<polygon fill="#cccccc" stroke="#cccccc" stroke-width="2" points="169.919,-237.5 179.919,-234 169.919,-230.5 169.919,-237.5"/>
</g>
<!-- rfc7277 -->
<g id="node24" class="node"><title>rfc7277</title>
<g id="a_node24"><a xlink:href="https://tools.ietf.org/html/rfc7277" xlink:title="rfc7277">
<polygon fill="none" stroke="#cccccc" stroke-width="2" points="234,-198 180,-198 180,-162 234,-162 234,-198"/>
<text text-anchor="middle" x="207" y="-177.2" font-family="Times New Roman,serif" font-size="11.00">rfc7277</text>
</a>
</g>
</g>
<!-- rfc6020&#45;&gt;rfc7277 -->
<g id="edge14" class="edge"><title>rfc6020&#45;&gt;rfc7277</title>
<path fill="none" stroke="#cccccc" stroke-width="2" d="M144.403,-217.798C152.832,-212.626 162.293,-206.82 171.224,-201.34"/>
<polygon fill="#cccccc" stroke="#cccccc" stroke-width="2" points="173.226,-204.218 179.919,-196.004 169.565,-198.251 173.226,-204.218"/>
</g>
<!-- rfc7317 -->
<g id="node25" class="node"><title>rfc7317</title>
<g id="a_node25"><a xlink:href="https://tools.ietf.org/html/rfc7317" xlink:title="rfc7317">
<polygon fill="none" stroke="#cccccc" stroke-width="2" points="234,-144 180,-144 180,-108 234,-108 234,-144"/>
<text text-anchor="middle" x="207" y="-123.2" font-family="Times New Roman,serif" font-size="11.00">rfc7317</text>
</a>
</g>
</g>
<!-- rfc6020&#45;&gt;rfc7317 -->
<g id="edge15" class="edge"><title>rfc6020&#45;&gt;rfc7317</title>
<path fill="none" stroke="#cccccc" stroke-width="2" d="M130.983,-215.846C143.154,-199.121 162.109,-173.818 180,-153 180.398,-152.537 180.801,-152.072 181.209,-151.606"/>
<polygon fill="#cccccc" stroke="#cccccc" stroke-width="2" points="183.952,-153.792 188.09,-144.038 178.773,-149.082 183.952,-153.792"/>
</g>
<!-- rfc7407 -->
<g id="node26" class="node"><title>rfc7407</title>
<g id="a_node26"><a xlink:href="https://tools.ietf.org/html/rfc7407" xlink:title="rfc7407">
<polygon fill="none" stroke="#cccccc" stroke-width="2" points="234,-90 180,-90 180,-54 234,-54 234,-90"/>
<text text-anchor="middle" x="207" y="-69.2" font-family="Times New Roman,serif" font-size="11.00">rfc7407</text>
</a>
</g>
</g>
<!-- rfc6020&#45;&gt;rfc7407 -->
<g id="edge16" class="edge"><title>rfc6020&#45;&gt;rfc7407</title>
<path fill="none" stroke="#cccccc" stroke-width="2" d="M124.074,-215.959C133.595,-189.083 153.698,-137.567 180,-99 180.192,-98.7177 180.388,-98.4357 180.586,-98.154"/>
<polygon fill="#cccccc" stroke="#cccccc" stroke-width="2" points="183.45,-100.177 186.948,-90.1765 177.977,-95.813 183.45,-100.177"/>
</g>
<!-- rfc7950 -->
<g id="node29" class="node"><title>rfc7950</title>
<g id="a_node29"><a xlink:href="https://tools.ietf.org/html/rfc7950" xlink:title="rfc7950">
<polygon fill="none" stroke="#cccccc" stroke-width="2" points="234,-36 180,-36 180,-0 234,-0 234,-36"/>
<text text-anchor="middle" x="207" y="-15.2" font-family="Times New Roman,serif" font-size="11.00">rfc7950</text>
</a>
</g>
</g>
<!-- rfc6020&#45;&gt;rfc7950 -->
<g id="edge11" class="edge"><title>rfc6020&#45;&gt;rfc7950</title>
<path fill="none" stroke="#cccccc" stroke-width="2" d="M121.121,-215.942C127.754,-180.936 145.544,-102.253 180,-45 180.113,-44.8118 180.228,-44.6239 180.344,-44.4363"/>
<polygon fill="#cccccc" stroke="#cccccc" stroke-width="2" points="183.243,-46.4027 186.367,-36.2789 177.612,-42.2449 183.243,-46.4027"/>
</g>
<!-- rfc6991 -->
<g id="node21" class="node"><title>rfc6991</title>
<g id="a_node21"><a xlink:href="https://tools.ietf.org/html/rfc6991" xlink:title="rfc6991">
<polygon fill="none" stroke="#cccccc" stroke-width="2" points="324,-414 270,-414 270,-378 324,-378 324,-414"/>
<text text-anchor="middle" x="297" y="-393.2" font-family="Times New Roman,serif" font-size="11.00">rfc6991</text>
</a>
</g>
</g>
<!-- rfc6021&#45;&gt;rfc6991 -->
<g id="edge17" class="edge"><title>rfc6021&#45;&gt;rfc6991</title>
<path fill="none" stroke="#cccccc" stroke-width="2" d="M234.403,-396C242.393,-396 251.311,-396 259.824,-396"/>
<polygon fill="#cccccc" stroke="#cccccc" stroke-width="2" points="259.919,-399.5 269.919,-396 259.919,-392.5 259.919,-399.5"/>
</g>
<!-- rfc6087 -->
<g id="node12" class="node"><title>rfc6087</title>
<g id="a_node12"><a xlink:href="https://tools.ietf.org/html/rfc6087" xlink:title="rfc6087">
<polygon fill="none" stroke="#cccccc" stroke-width="2" points="54,-562 0,-562 0,-526 54,-526 54,-562"/>
<text text-anchor="middle" x="27" y="-541.2" font-family="Times New Roman,serif" font-size="11.00">rfc6087</text>
</a>
</g>
</g>
<!-- rfc6110 -->
<g id="node13" class="node"><title>rfc6110</title>
<g id="a_node13"><a xlink:href="https://tools.ietf.org/html/rfc6110" xlink:title="rfc6110">
<polygon fill="none" stroke="#cccccc" stroke-width="2" points="54,-616 0,-616 0,-580 54,-580 54,-616"/>
<text text-anchor="middle" x="27" y="-595.2" font-family="Times New Roman,serif" font-size="11.00">rfc6110</text>
</a>
</g>
</g>
<!-- rfc6243 -->
<g id="node16" class="node"><title>rfc6243</title>
<g id="a_node16"><a xlink:href="https://tools.ietf.org/html/rfc6243" xlink:title="rfc6243">
<polygon fill="none" stroke="#cccccc" stroke-width="2" points="54,-670 0,-670 0,-634 54,-634 54,-670"/>
<text text-anchor="middle" x="27" y="-649.2" font-family="Times New Roman,serif" font-size="11.00">rfc6243</text>
</a>
</g>
</g>
<!-- rfc6244 -->
<g id="node17" class="node"><title>rfc6244</title>
<g id="a_node17"><a xlink:href="https://tools.ietf.org/html/rfc6244" xlink:title="rfc6244">
<polygon fill="none" stroke="#cccccc" stroke-width="2" points="54,-724 0,-724 0,-688 54,-688 54,-724"/>
<text text-anchor="middle" x="27" y="-703.2" font-family="Times New Roman,serif" font-size="11.00">rfc6244</text>
</a>
</g>
</g>
<!-- rfc6470 -->
<g id="node18" class="node"><title>rfc6470</title>
<g id="a_node18"><a xlink:href="https://tools.ietf.org/html/rfc6470" xlink:title="rfc6470">
<polygon fill="none" stroke="#cccccc" stroke-width="2" points="54,-778 0,-778 0,-742 54,-742 54,-778"/>
<text text-anchor="middle" x="27" y="-757.2" font-family="Times New Roman,serif" font-size="11.00">rfc6470</text>
</a>
</g>
</g>
<!-- rfc6643 -->
<g id="node19" class="node"><title>rfc6643</title>
<g id="a_node19"><a xlink:href="https://tools.ietf.org/html/rfc6643" xlink:title="rfc6643">
<polygon fill="none" stroke="#cccccc" stroke-width="2" points="54,-832 0,-832 0,-796 54,-796 54,-832"/>
<text text-anchor="middle" x="27" y="-811.2" font-family="Times New Roman,serif" font-size="11.00">rfc6643</text>
</a>
</g>
</g>
<!-- rfc6536 -->
<g id="node20" class="node"><title>rfc6536</title>
<g id="a_node20"><a xlink:href="https://tools.ietf.org/html/rfc6536" xlink:title="rfc6536">
<polygon fill="none" stroke="#cccccc" stroke-width="2" points="54,-886 0,-886 0,-850 54,-850 54,-886"/>
<text text-anchor="middle" x="27" y="-865.2" font-family="Times New Roman,serif" font-size="11.00">rfc6536</text>
</a>
</g>
</g>
<!-- rfc7589 -->
<g id="node27" class="node"><title>rfc7589</title>
<g id="a_node27"><a xlink:href="https://tools.ietf.org/html/rfc7589" xlink:title="rfc7589">
<polygon fill="none" stroke="#cccccc" stroke-width="2" points="54,-940 0,-940 0,-904 54,-904 54,-940"/>
<text text-anchor="middle" x="27" y="-919.2" font-family="Times New Roman,serif" font-size="11.00">rfc7589</text>
</a>
</g>
</g>
<!-- rfc7895 -->
<g id="node28" class="node"><title>rfc7895</title>
<g id="a_node28"><a xlink:href="https://tools.ietf.org/html/rfc7895" xlink:title="rfc7895">
<polygon fill="none" stroke="#cccccc" stroke-width="2" points="54,-994 0,-994 0,-958 54,-958 54,-994"/>
<text text-anchor="middle" x="27" y="-973.2" font-family="Times New Roman,serif" font-size="11.00">rfc7895</text>
</a>
</g>
</g>
<!-- rfc7951 -->
<g id="node30" class="node"><title>rfc7951</title>
<g id="a_node30"><a xlink:href="https://tools.ietf.org/html/rfc7951" xlink:title="rfc7951">
<polygon fill="none" stroke="#cccccc" stroke-width="2" points="54,-1048 0,-1048 0,-1012 54,-1012 54,-1048"/>
<text text-anchor="middle" x="27" y="-1027.2" font-family="Times New Roman,serif" font-size="11.00">rfc7951</text>
</a>
</g>
</g>
<!-- rfc7952 -->
<g id="node31" class="node"><title>rfc7952</title>
<g id="a_node31"><a xlink:href="https://tools.ietf.org/html/rfc7952" xlink:title="rfc7952">
<polygon fill="none" stroke="#cccccc" stroke-width="2" points="54,-1102 0,-1102 0,-1066 54,-1066 54,-1102"/>
<text text-anchor="middle" x="27" y="-1081.2" font-family="Times New Roman,serif" font-size="11.00">rfc7952</text>
</a>
</g>
</g>
</g>
</svg>
